<?xml version="1.0" encoding="UTF-8"?> <svg xmlns="http://www.w3.org/2000/svg" viewBox="0 0 253.37 214.21" width="200px"><style> .dot1, .dot2, .dot3 { fill: #D1D1D1; } .dot1, .dot2, .dot3 { animation: blink 1.5s linear infinite; } .dot2 { animation-delay: 0.5s; } .dot3 { animation-delay: 1s; } @keyframes blink { 0%, 100% { opacity: 0; } 50% { opacity: 1; } } .dots { animation: sequence 178s linear infinite; } @keyframes sequence { 0%, 4% { opacity: 1; transition: opacity 0.5s ease-in-out; } /* Runs for 4s */ 4.01%, 10% { opacity: 0; transition: opacity 0.5s ease-in-out; } /* Pauses for 6s */ 10.01%, 22% { opacity: 1; transition: opacity 0.5s ease-in-out; } /* Runs for 12s */ 22.01%, 27% { opacity: 0; transition: opacity 0.5s ease-in-out; } /* Pauses for 5s */ 27.01%, 35% { opacity: 1; transition: opacity 0.5s ease-in-out; } /* Runs for 8s */ 35.01%, 41% { opacity: 0; transition: opacity 0.5s ease-in-out; } /* Pauses for 6s */ 41.01%, 57% { opacity: 1; transition: opacity 0.5s ease-in-out; } /* Runs for 16s */ 57.01%, 69% { opacity: 0; transition: opacity 0.5s ease-in-out; } /* Pauses for 12s */ 69.01%, 78% { opacity: 1; transition: opacity 0.5s ease-in-out; } /* Runs for 9s */ 78.01%, 84% { opacity: 0; transition: opacity 0.5s ease-in-out; } /* Pauses for 6s */ 84.01%, 103% { opacity: 1; transition: opacity 0.5s ease-in-out; } /* Runs for 19s */ 103.01%, 113% { opacity: 0; transition: opacity 0.5s ease-in-out; } /* Pauses for 10s */ 113.01%, 117% { opacity: 1; transition: opacity 0.5s ease-in-out; } /* Runs for 4s */ 117.01%, 122% { opacity: 0; transition: opacity 0.5s ease-in-out; } /* Pauses for 5s */ 122.01%, 125% { opacity: 1; transition: opacity 0.5s ease-in-out; } /* Runs for 3s */ 125.01%, 131% { opacity: 0; transition: opacity 0.5s ease-in-out; } /* Pauses for 6s */ 131.01%, 138% { opacity: 1; transition: opacity 0.5s ease-in-out; } /* Runs for 7s */ 138.01%, 148% { opacity: 0; transition: opacity 0.5s ease-in-out; } /* Pauses for 10s */ 148.01%, 152% { opacity: 1; transition: opacity 0.5s ease-in-out; } /* Runs for 4s */ 152.01%, 155% { opacity: 0; transition: opacity 0.5s ease-in-out; } /* Pauses for 3s */ 155.01%, 158% { opacity: 1; transition: opacity 0.5s ease-in-out; } /* Runs for 3s */ 158.01%, 218% { opacity: 0; transition: opacity 0.5s ease-in-out; } /* Pauses for 60s */ } </style><g id="Layer_2" data-name="Layer 2"><g id="Layer_1-2" data-name="Layer 1"><path d="M140.49,175.26c-21.16,0-42.32.18-63.48-.12a24.17,24.17,0,0,0-14.82,4.64Q40.1,195.25,17.88,210.54c-2,1.39-4.22,2.92-6.55,3.41-7.65,1.64-13-4.88-10.85-13.28C3,190.68,6,180.78,8.63,170.83c2.42-9,5.24-17.92,7-27.05a223,223,0,0,0,3.58-28.57c.67-11.29.06-22.65.6-34,.7-15.06,8.64-26,22-32A329.88,329.88,0,0,1,82.45,34.36c38.1-11.29,76.41-21.9,114.61-32.86,13.52-3.88,25.42.12,36.17,7.85,12.64,9.1,19.61,21.85,19.81,37.46.35,27.82.56,55.66-.09,83.47-.55,23.7-21.69,44.27-45.48,44.77-22.31.48-44.65.11-67,.11ZM107.05,97.65A19.49,19.49,0,0,0,87.48,77.94C77,78,68.19,86.58,68.08,96.81c-.12,10.9,8.65,20,19.33,20.11C97.88,117,107.06,108,107.05,97.65Zm58.66-.74c0,11.1,8.57,20,19.3,20,10.35,0,19.74-9.29,19.61-19.38a19.6,19.6,0,0,0-19.24-19.6A19.23,19.23,0,0,0,165.71,96.91Zm-48.77.36a19.6,19.6,0,0,0,19.18,19.65c10.3.11,19.77-9.09,19.78-19.23a19.64,19.64,0,0,0-19.62-19.75A19.29,19.29,0,0,0,116.94,97.27Z"></path><g class="dots"><circle class="dot1" cx="87.48" cy="97.65" r="19.49"></circle><circle class="dot2" cx="137.14" cy="97.27" r="19.29"></circle><circle class="dot3" cx="184.01" cy="96.91" r="19.23"></circle></g></g></g></svg> 